<svg id="check-verified" xmlns="http://www.w3.org/2000/svg" width="12.131" height="12.131" viewBox="0 0 12.131 12.131">
  <path id="Path_19" data-name="Path 19" d="M5.366,11.278H5.213a1.213,1.213,0,0,1,0-2.426h.153A4.833,4.833,0,0,1,5.885,7.6l-.109-.109A1.213,1.213,0,1,1,7.492,5.777l.108.109a4.823,4.823,0,0,1,1.252-.519V5.213a1.213,1.213,0,0,1,2.426,0v.153a4.833,4.833,0,0,1,1.252.519l.109-.109a1.213,1.213,0,1,1,1.715,1.716l-.109.108a4.812,4.812,0,0,1,.519,1.252h.153a1.213,1.213,0,0,1,0,2.426h-.153a4.823,4.823,0,0,1-.519,1.252l.109.109a1.213,1.213,0,1,1-1.716,1.715l-.108-.109a4.823,4.823,0,0,1-1.252.519v.153a1.213,1.213,0,0,1-2.426,0v-.153A4.823,4.823,0,0,1,7.6,14.246l-.109.109a1.213,1.213,0,1,1-1.715-1.716l.109-.108a4.823,4.823,0,0,1-.519-1.252Zm2.88-2.426L7.033,10.065l2.426,2.426L13.1,8.852,11.885,7.639,9.459,10.065Z" transform="translate(-4 -4)" fill="#478cca" fill-rule="evenodd"/>
</svg>
